<?xml version="1.0" encoding="UTF-8" standalone="no"?>
<svg
   height="16"
   viewBox="0 0 16 16"
   width="16"
   version="1.1"
   id="svg23931"
   sodipodi:docname="icon_spine_machine.svg"
   inkscape:version="1.1 (c4e8f9e, 2021-05-24)"
   xmlns:inkscape="http://www.inkscape.org/namespaces/inkscape"
   xmlns:sodipodi="http://sodipodi.sourceforge.net/DTD/sodipodi-0.dtd"
   xmlns="http://www.w3.org/2000/svg"
   xmlns:svg="http://www.w3.org/2000/svg">
  <defs
     id="defs23935" />
  <sodipodi:namedview
     id="namedview23933"
     pagecolor="#ffffff"
     bordercolor="#666666"
     borderopacity="1.0"
     inkscape:pageshadow="2"
     inkscape:pageopacity="0.0"
     inkscape:pagecheckerboard="0"
     showgrid="false"
     inkscape:zoom="32.8125"
     inkscape:cx="8.5942857"
     inkscape:cy="9.2190476"
     inkscape:window-width="1280"
     inkscape:window-height="747"
     inkscape:window-x="37"
     inkscape:window-y="25"
     inkscape:window-maximized="0"
     inkscape:current-layer="svg23931" />
  <path
     d="M 1,1 V 15 H 2.166 V 13 H 4 v 2 h 8 v -2 h 2 v 2 h 1 V 1 H 14 V 3 H 12 V 1 H 4 V 3 H 2.166 V 1 Z M 2.166,5 H 4 V 7 H 2.166 Z M 12,5 h 2 V 7 H 12 Z M 2.166,9 H 4 v 2 H 2.166 Z M 12,9 h 2 v 2 h -2 z m -3.8188891,4.198111 c -0.7592617,0 -1.6157459,-0.07407 -2.5694526,-0.222223 v -1.694449 c 1.1157443,0.166667 1.9722285,0.25 2.5694526,0.25 0.8240767,0 1.236115,-0.439816 1.236115,-1.319448 0,-0.2453713 -0.060185,-0.4768536 -0.1805561,-0.6944469 C 9.1209287,9.2953212 8.9565763,9.1425429 8.7436126,9.0592094 8.6093529,9.0082833 8.4241672,8.9666165 8.1880553,8.934209 7.9519435,8.9018015 7.7088872,8.855505 7.4588864,8.7953196 7.2135152,8.7305046 6.9774033,8.6309673 6.7505508,8.4967076 5.8801777,7.9781874 5.4449911,7.1587404 5.4449911,6.0383665 c 0,-0.8009285 0.2546304,-1.4745417 0.7638913,-2.0208397 0.5138905,-0.5462981 1.1713,-0.8194471 1.9722285,-0.8194471 0.6250019,0 1.4814863,0.057871 2.5694531,0.1736117 V 5.0453078 C 9.62556,4.9249371 8.7690757,4.8647517 8.1811109,4.8647517 c -0.1759265,0 -0.3310196,0.039352 -0.4652793,0.1180559 -0.12963,0.078704 -0.2291673,0.1805561 -0.298612,0.3055565 -0.069445,0.1250004 -0.1203708,0.2523156 -0.1527783,0.3819457 -0.027778,0.12963 -0.041667,0.2569452 -0.041667,0.3819456 0,0.546298 0.1851858,0.9027806 0.5555573,1.0694478 0.1203707,0.055556 0.3935198,0.1180562 0.8194471,0.1875006 0.4305569,0.064815 0.7777802,0.1666675 1.0416699,0.3055565 0.3703714,0.1898155 0.6759284,0.4351866 0.9166694,0.7361135 0.240742,0.3009269 0.407409,0.6041686 0.500002,0.9097251 0.09259,0.3055565 0.138889,0.6226872 0.138889,0.9513921 0,0.898151 -0.277779,1.620375 -0.833336,2.166673 -0.5555573,0.546298 -1.2824113,0.819447 -2.1805621,0.819447 z"
     fill="#cea4f1"
     id="path23929"
     sodipodi:nodetypes="ccccccccccccccccccccccccccccccccccccccccc" />
</svg>
